<?xml version="1.0" encoding="utf-8"?>
<!-- Generator: Adobe Illustrator 26.4.1, SVG Export Plug-In . SVG Version: 6.00 Build 0)  -->
<svg version="1.1" id="Layer_1" xmlns="http://www.w3.org/2000/svg" xmlns:xlink="http://www.w3.org/1999/xlink" x="0px" y="0px"
	 viewBox="0 0 3061.4 3061.4" style="enable-background:new 0 0 3061.4 3061.4;" xml:space="preserve">
<style type="text/css">
	.st0{fill:url(#SVGID_1_);}
	.st1{fill:url(#SVGID_00000032627459561302401120000004903203625218367415_);}
	.st2{fill:#222222;}
	.st3{fill-rule:evenodd;clip-rule:evenodd;fill:#222222;}
	.st4{fill:url(#SVGID_00000134227093472598305420000005030341246394328487_);}
	.st5{fill:url(#SVGID_00000137826861799248133900000011173734063522752433_);}
	.st6{fill:url(#SVGID_00000160164565590571071290000013724516324949603976_);}
	.st7{fill:url(#SVGID_00000085946899556037727910000006528654942987114894_);}
</style>
<g>
	<polygon class="st2" points="504.2,2475.4 301.1,2777.4 424,2777.4 566,2562.9 706.4,2777.4 835,2777.4 629.5,2471.2 816.1,2196.9 
		693.2,2196.9 568.5,2385.4 442.1,2196.9 314.3,2196.9 	"/>
	<polygon class="st2" points="2331.7,2290.7 2584.9,2290.7 2584.9,2194.8 2223.7,2194.8 2223.7,2775.3 2331.7,2775.3 2331.7,2535.5 
		2584.9,2535.5 2584.9,2439.6 2331.7,2439.6 	"/>
	<path class="st2" d="M1154.6,2439.2c-14.8,14.3-35.5,21-61,21h-99.8v-167.4h99.8c26.4,0,46.2,7.6,61,22.7
		c14.8,15.1,22.3,36.2,22.3,63.9C1176.9,2405.6,1169.5,2425.8,1154.6,2439.2z M1234.6,2245.7c-33-32-78.3-48.8-136.1-48.8H885.8
		v580.5h108V2557h104.7c57.7,0,103.1-16,136.1-48c33-32,50.3-75.7,50.3-129.6C1284.9,2323.1,1267.6,2278.5,1234.6,2245.7z"/>
	<path class="st3" d="M1639.1,2565c0,16.5-3.1,32.3-9.3,47.5c-6.2,15.2-15,28.6-26.4,40.3c-11.4,11.6-24.6,20.6-39.5,26.9
		c-14.9,6.3-30.4,9.5-46.6,9.5c-16.1,0-31.7-3.1-46.6-9.5c-14.9-6.3-28.1-15.3-39.5-26.9c-11.4-11.6-20.2-25.1-26.4-40.3
		c-6.2-15.2-9.3-31-9.3-47.5s3.1-32.3,9.3-47.5c6.2-15.2,15-28.6,26.4-40.3c11.4-11.6,24.6-20.6,39.5-26.9
		c14.9-6.3,30.4-9.5,46.6-9.5c16.1,0,31.7,3.1,46.6,9.5c14.9,6.3,28.1,15.3,39.5,26.9c11.4,11.6,20.2,25.1,26.4,40.3
		C1636.1,2532.7,1639.1,2548.5,1639.1,2565z M1639.1,2750.8c-36.8,25.1-77.4,37.7-121.7,37.7c-14.4,0-28.6-1.4-42.7-4.3
		c-14.1-2.9-27.8-7.1-41.1-12.7c-13.3-5.6-25.9-12.5-37.9-20.7c-12-8.2-23-17.4-33.2-27.8c-10.2-10.4-19.3-21.7-27.2-33.9
		c-8-12.2-14.7-25.1-20.2-38.6c-5.5-13.6-9.7-27.5-12.5-41.9c-2.8-14.4-4.2-28.9-4.2-43.6s1.4-29.2,4.2-43.6
		c2.8-14.4,7-28.4,12.5-41.9c5.5-13.6,12.3-26.4,20.2-38.6c8-12.2,17.1-23.5,27.2-33.9c10.2-10.4,21.2-19.6,33.2-27.8
		c12-8.2,24.6-15,37.9-20.7c13.3-5.6,27-9.9,41.1-12.7c14.1-2.9,28.4-4.3,42.7-4.3c44.3,0,84.9,12.6,121.7,37.7v-25.2h95.8v184.4
		c1,8.8,1.6,17.7,1.6,26.6s-0.5,17.8-1.6,26.6v175.5h-95.8V2750.8z"/>
	<path class="st2" d="M2161.5,2355.6h-101.7l-83.3,264l-81.7-264h-104.9l141,408.6l-1.6,5.7c-4.8,16.2-11.2,26.6-19.2,32.3
		c-8,5.7-19.2,8.1-35.2,8.1h-31.2v89.6h34.4c32.8,0,59.3-6.5,79.3-21c20-13.7,35.2-36.3,46.5-67L2161.5,2355.6z"/>
	<path class="st2" d="M2658.1,2326.8v437.5h101.4v-437.5H2658.1z"/>
	<rect x="2656.4" y="2194.8" class="st2" width="103.9" height="83.3"/>
</g>
<g>
	<linearGradient id="SVGID_1_" gradientUnits="userSpaceOnUse" x1="1135.8595" y1="1503.8107" x2="2676.6035" y2="1503.8107">
		<stop  offset="0" style="stop-color:#6C11FF"/>
		<stop  offset="0.4959" style="stop-color:#B067E9"/>
		<stop  offset="1" style="stop-color:#F5BED3"/>
	</linearGradient>
	<path class="st0" d="M2063.1,1398.3c-41.5-56.3-91.4-105.4-147.6-145.4c-48.2-34.4-101.1-62.2-157.4-82.5
		c-8.8-3.2-16.4,7-10.9,14.5l0,0l418.4,569.7h-235.1c-16.7,0-32.4-7.9-42.3-21.4l-10.8-14.8l-295-401.6v-0.1l-69.4-94.4
		c-22.7-31-51.6-55.4-84.5-72c-32.9-16.7-69.7-25.5-108.1-25.5c-76.9,0-147.1,35.6-192.7,97.6l-485.3,660.6h488.4
		c57.2,0,111.7-27.5,145.6-73.7l208-283.1l-79.5-108.3l-231.9,315.6c-9.8,13.3-25.6,21.3-42.2,21.3H895.8l335.4-456.5
		c10.6-14.3,23.9-25.6,39.2-33.3c15.3-7.7,32.3-11.9,50.1-11.9c35.6,0,68.1,16.6,89.2,45.2l10.4,14.1l59.1,80.4l18.9,25.8l32.8,44.5
		l254.2,346.2c10.6,14.3,23.2,26.9,37.2,37.4c30.9,23.2,69,36.3,108.4,36.3H2419L2063.1,1398.3z"/>
	
		<linearGradient id="SVGID_00000057147915785539665150000003203006177071203208_" gradientUnits="userSpaceOnUse" x1="1135.8595" y1="700.6742" x2="2676.6035" y2="700.6742">
		<stop  offset="0" style="stop-color:#6C11FF"/>
		<stop  offset="0.4959" style="stop-color:#B067E9"/>
		<stop  offset="1" style="stop-color:#F5BED3"/>
	</linearGradient>
	<path style="fill:url(#SVGID_00000057147915785539665150000003203006177071203208_);" d="M998.3,806.2
		c41.5,56.3,91.4,105.4,147.6,145.4c48.2,34.4,101.1,62.2,157.4,82.5c8.8,3.2,16.4-7,10.9-14.5v0L895.7,449.8h235.1
		c16.7,0,32.4,7.9,42.3,21.4l10.8,14.8l295,401.6v0.1l69.4,94.4c22.7,31,51.6,55.4,84.5,72c32.9,16.7,69.7,25.5,108.1,25.5
		c76.9,0,147.1-35.6,192.7-97.6L2419,321.6h-488.4c-57.2,0-111.7,27.5-145.6,73.7l-208,283.1l79.5,108.3l231.9-315.6
		c9.8-13.3,25.6-21.3,42.2-21.3h235.1l-335.4,456.5c-10.6,14.3-23.9,25.6-39.2,33.3c-15.3,7.7-32.3,11.9-50.1,11.9
		c-35.6,0-68.1-16.6-89.2-45.2l-10.4-14.1l-59.1-80.4l-18.9-25.8l-32.8-44.5l-254.2-346.2c-10.6-14.3-23.2-26.9-37.2-37.4
		c-30.9-23.2-69-36.3-108.4-36.3H642.4L998.3,806.2z"/>
</g>
</svg>
